<svg version="1.2" xmlns="http://www.w3.org/2000/svg" viewBox="0 0 769 769" width="769" height="769">
	<style>
		tspan { white-space:pre } 
		.s0 { fill: #ffffff } 
		.s1 { fill: #939598 } 
		.s2 { fill: #fefefe } 
		.s3 { fill: #231f20 } 
	</style>
	<g id="_Artboards_">
		<path id="Balance - Symmetrical" fill-rule="evenodd" class="s0" d="m769-1794.33v769h-769v-769z"/>
		<path id="Balance - Asymmetrical" fill-rule="evenodd" class="s0" d="m1666.17-1794.33v769h-769v-769z"/>
		<path id="Balance - Radial" fill-rule="evenodd" class="s0" d="m2563.33-1794.33v769h-769v-769z"/>
		<path id="Contrast" fill-rule="evenodd" class="s0" d="m3460.5-1794.33v769h-769v-769z"/>
		<path id="Emphasis" fill-rule="evenodd" class="s0" d="m769-897.17v769h-769v-769z"/>
		<path id="Repitition 1" fill-rule="evenodd" class="s0" d="m1666.17-897.17v769h-769v-769z"/>
		<path id="Repitition 2" fill-rule="evenodd" class="s0" d="m2563.33-897.17v769h-769v-769z"/>
		<path id="Unity" fill-rule="evenodd" class="s0" d="m3460.5-897.17v769h-769v-769z"/>
		<path id="Space" fill-rule="evenodd" class="s0" d="m769 0v769h-769v-769z"/>
		<path id="Texture 1" fill-rule="evenodd" class="s0" d="m1666.17 0v769h-769v-769z"/>
		<path id="Texture 2" fill-rule="evenodd" class="s0" d="m2563.33 0v769h-769v-769z"/>
		<path id="Scale/Proportion" fill-rule="evenodd" class="s0" d="m3460.5 0v769h-769v-769z"/>
		<path id="Grey Background" fill-rule="evenodd" class="s0" d="m3716.83-2050.67v3076h-3973.16v-3076z"/>
	</g>
	<g id="Grey Background">
		<path id="&lt;Path&gt;" fill-rule="evenodd" class="s1" d="m3778.45-2118.58v3201.44h-4074.06v-3201.44z"/>
	</g>
	<g id="Background">
		<path id="&lt;Path&gt;" fill-rule="evenodd" class="s2" d="m769-1794.33v769h-769v-769z"/>
		<path id="&lt;Path&gt;" fill-rule="evenodd" class="s2" d="m1666.17-1794.33v769h-769v-769z"/>
		<path id="&lt;Path&gt;" fill-rule="evenodd" class="s2" d="m2563.33-1794.33v769h-769v-769z"/>
		<path id="&lt;Path&gt;" fill-rule="evenodd" class="s2" d="m3460.5-1794.33v769h-769v-769z"/>
		<path id="&lt;Path&gt;" fill-rule="evenodd" class="s3" d="m769-897.17v769h-769v-769z"/>
		<path id="&lt;Path&gt;" fill-rule="evenodd" class="s2" d="m1666.17-897.17v769h-769v-769z"/>
		<path id="&lt;Path&gt;" fill-rule="evenodd" class="s2" d="m2563.33-897.17v769h-769v-769z"/>
		<path id="&lt;Path&gt;" fill-rule="evenodd" class="s2" d="m3460.5-897.17v769h-769v-769z"/>
		<path id="&lt;Path&gt;" fill-rule="evenodd" class="s2" d="m769 0v769h-769v-769z"/>
		<path id="&lt;Path&gt;" fill-rule="evenodd" class="s2" d="m1666.17 0v769h-769v-769z"/>
		<path id="&lt;Path&gt;" fill-rule="evenodd" class="s2" d="m2563.33 0v769h-769v-769z"/>
		<path id="&lt;Path&gt;" fill-rule="evenodd" class="s2" d="m3460.5 0v769h-769v-769z"/>
	</g>
	<g id="Artwork">
		<g id="Space">
			<path id="&lt;Path&gt;" class="s3" d="m0 416.54v352.46h352.46z"/>
			<path id="&lt;Path&gt;" class="s2" d="m176.23 592.77l-166.13 44.51 121.62 121.62z"/>
			<path id="&lt;Path&gt;" class="s3" d="m176.23 592.77l580.93-155.66-425.27-425.27z"/>
			<g id="&lt;Group&gt;">
				<path id="&lt;Path&gt;" class="s3" d="m135.13 178.11c-1.25 14.34-13.89 24.94-28.22 23.69-14.34-1.26-24.94-13.9-23.69-28.23 1.25-14.34 13.89-24.94 28.23-23.69 14.33 1.26 24.94 13.9 23.68 28.23z"/>
				<path id="&lt;Path&gt;" class="s2" d="m150.2 191.1c-1.47 16.82-16.3 29.26-33.11 27.79-16.82-1.47-29.26-16.3-27.79-33.11 1.47-16.82 16.3-29.26 33.11-27.79 16.82 1.47 29.26 16.3 27.79 33.11z"/>
			</g>
			<g id="&lt;Group&gt;">
				<path id="&lt;Path&gt;" class="s3" d="m607.88 613.61c-1.25-14.33 9.35-26.97 23.69-28.23 14.34-1.25 26.97 9.35 28.23 23.69 1.25 14.34-9.35 26.97-23.69 28.23-14.33 1.25-26.97-9.35-28.23-23.69z"/>
				<path id="&lt;Path&gt;" class="s2" d="m590.79 603.43c-1.47-16.81 10.97-31.64 27.79-33.11 16.81-1.47 31.64 10.97 33.11 27.78 1.47 16.82-10.97 31.65-27.79 33.12-16.81 1.47-31.64-10.97-33.11-27.79z"/>
			</g>
			<path id="&lt;Path&gt;" fill-rule="evenodd" class="s2" d="m176.23 670.2c-42.82 0-77.43-34.61-77.43-77.43 0-42.82 34.61-77.43 77.43-77.43 42.82 0 77.43 34.61 77.43 77.43 0 42.82-34.61 77.43-77.43 77.43z"/>
		</g>
	</g>
</svg>