<svg version="1.2" xmlns="http://www.w3.org/2000/svg" viewBox="0 0 786 1000" width="786" height="1000">
	<defs>
		<clipPath clipPathUnits="userSpaceOnUse" id="cp1">
			<path d="m314.65 103.5c-16.49 4.83-48.04 16.82-70.32 46.94-6.29 8.5-13.25 20.34-21.11 46.61-7.69 25.68-16.53 66.09-15.04 119.21-2.57-2.39-10.27-8.23-21.21-9.62-3.54-0.45-11.17-0.96-17.84 3.57-10.05 6.82-10.75 20.53-11.02 25.89-0.53 10.46 2.57 12.8 6.92 30.08 2.65 10.49 4.39 8.96 7.9 46.58 1.67 17.99 3.5 19.14 5.93 23.83 2.32 4.49 11.07 18.85 25.08 21.34 7.4 1.32 13.54-2.93 16.4-4.89 5.82 27.02 14.84 40.53 16.85 53.67 0.41 2.7 4.41 6.86 6.54 13.78 4.74 9.04 4.74 17.28 4.99 28.8 0.25 11.72 0 12.41 0.76 27.61 1.42 28.36 1.66 54.27-2.03 78.01-1.61 10.36-4.36 18.29-5.57 23.81-6.59-12.67-7.75-25.75-9.12-33.44-1.59-8.86-0.55-14.82-3.6-15.38-2.33-0.43-6.78 1.73-10.85 8.55-9.37 15.7-5.73 11.92-11.65 21.23-16.79 26.38-17.15 38.06-32.44 50.95-2.71 2.29-5.26 3.97-13.68 8.36-13.18 9.12-35.07 17.32-63.09 27.36 16.2-81.69 26.65-149.73 33.44-199.85 7.29-53.67 14.47-116.88 16.73-136.78 5.7-50.15 7.99-74.53 14.44-120.82 3.97-28.47 9.36-64.1 19-107.9 7.97-36.16 11.95-54.23 18.25-66.87 25.85-51.85 76.89-74.79 89.7-80.55 78.77-35.4 156.5-7.81 184.71 4.56 68.21 29.92 102.54 82.95 116.31 104.86 12.25 19.51 19.46 36.29 38.01 93.47 37.64 116.04 56.46 174.06 66.89 229.48 12.69 67.44 14.26 110.16 50.93 155.02 14.4 17.61 29.37 29.64 40.14 37.23q0 32.3 0 64.59c-7.14-3.61-18.31-4.82-32.54-7.09-22.41-3.58-31.71-1.23-56.25 0.25-12.07 0.73-42.8 4.06-72.21-9.12-24.36-10.9-24.79-23.4-45.61-29.63-21.35-6.39-26.82-8.18-40.55-3.04-13.17-36.98-16.25-63.76-21.03-82.07-1.85-7.1-6.56-23.27 0-40.27 4.25-10.98 11.01-17.52 13.25-21.37 8.54-14.68 16.63-35.12 28.56-78.17 2.17 2.18 6.17 5.04 11.51 5.73 11.57 1.5 20.78-9.67 24.98-14.85 6.48-8.01 8.83-16.04 9.88-19.76 2.14-7.57 1.46-13.35 1.47-17.62 0.05-18.35 4.49-26.33 14.49-65.97 0.92-3.62-0.14-8.25-1.73-14.12-0.3-1.13-3.08-11.84-13.67-17.98-10.57-3.61-22.99-0.07-34.51 8.55-0.12-19.73-3.25-56.3-26.1-91.95-7.22-11.26-23.66-33.75-73.74-63.07-32.19-18.85-84.72-44.29-157.55-57.74z"/>
		</clipPath>
	</defs>
	<style>
		.s0 { fill: #8bd3de } 
		.s1 { fill: #231f20 } 
		.s2 { fill: #e9ccc1 } 
		.s3 { opacity: .36;mix-blend-mode: luminosity;fill: #b46256 } 
		.s4 { fill: #b46256 } 
		.s5 { fill: #5478b3;stroke: #5478b3;stroke-linejoin: round;stroke-width: 6 } 
		.s6 { opacity: .5;fill: #e9ccc1 } 
		.s7 { fill: #5478b3 } 
		.s8 { fill: #20407f } 
	</style>
	<g id="Template option 1.png">
	</g>
	<g id="Background">
		<g id="Background">
			<path id="&lt;Path&gt;" fill-rule="evenodd" class="s0" d="m786.99 0v1000h-786.99v-1000z"/>
		</g>
	</g>
	<g id="Layer 0 - Undershirt">
		<path id="&lt;Path&gt;" fill-rule="evenodd" class="s1" d="m566.63 728.11v271.89h-317.91v-271.89z"/>
	</g>
	<g id="Layer 1 - Skin">
		<path id="&lt;Path&gt;" class="s2" d="m534.54 659.72c-4.99-22.06-4.19-41.74-3.04-80.04 0.58-19.36 1.75-42.21 4.05-67.88q-72.47 18.74-144.94 37.49-72.46-18.75-144.93-37.49c2.29 25.67 3.47 48.52 4.05 67.88 1.15 38.3 1.95 57.98-3.04 80.04-6.04 26.74-16.06 47.61-24.32 61.81 12.56 14.18 30.46 31.28 54.73 46.6 44.74 28.26 88.26 36.05 113.51 38.5 25.25-2.45 68.77-10.24 113.52-38.5 24.27-15.32 42.17-32.42 54.73-46.6-8.26-14.2-18.28-35.07-24.32-61.81z"/>
		<path id="&lt;Path&gt;" class="s3" d="m245.56 529.49c53.33 73.49 111.1 139.25 125.29 170.74 1.65 3.65 7.37 6.53 13.68 14.71 27.78 35.97 59.38 61.18 81.59 74.97 8.31-2.6 23.14-9.38 36.49-20.26 4.68-3.81 38.19-13.62 45.1-49.14 3.18-16.33-7.67-39.32-13.01-58.65-10.06-36.48-12.73-50.99-20.08-86.65-1.9-9.25 0.52-17.12 1.1-21.81-82.76 1.23-187.39-25.15-270.16-23.91z"/>
		<path id="&lt;Path&gt;" class="s2" d="m620.69 327.4c-1.42-5.39-3.75-13.77-11.15-18.24-9.59-5.78-24.12-2.83-37.5 7.1 2.06-28.28 1.56-72.71-16.22-122.6-6.65-18.67-12.88-35.7-26.35-51.67-42.57-50.46-120.18-46.15-139.36-44.58-19.18-1.57-96.8-5.88-139.36 44.58-13.48 15.97-19.7 33-26.36 51.67-17.77 49.89-18.27 94.32-16.21 122.6-13.39-9.93-27.92-12.88-37.5-7.1-7.4 4.47-9.73 12.85-11.15 18.24-5.91 22.45 7.49 32.21 12.16 66.87 2.88 21.41-1.14 25.79 5.07 38.5 0.74 1.53 13.39 26.66 31.42 25.33 5.28-0.39 9.45-2.94 12.16-5.06 2.38 12.84 22.89 114.88 108.45 150.96 22.01 9.28 43.35 12.1 61.32 12.16 17.96-0.06 39.31-2.88 61.32-12.16 85.56-36.08 106.07-138.12 108.45-150.96 2.7 2.12 6.88 4.67 12.16 5.06 18.02 1.33 30.67-23.8 31.42-25.33 6.2-12.71 2.18-17.09 5.06-38.5 4.67-34.66 18.07-44.42 12.17-66.87z"/>
		<path id="&lt;Path&gt;" class="s3" d="m408.35 328.42c-3.15 0.29-4.34 12.51-4.56 16.71-0.55 10.58 2.59 18.51 3.55 20.77 1.6 3.78 7.99 10.46 20.77 23.81 2.68 2.8 5.71 5.9 7.61 5.07 2.27-1 1.59-7.03 1.52-7.6-1.03-8.46-7.5-14.12-10.14-16.72-16.78-16.51-14.16-42.48-18.75-42.04z"/>
	</g>
	<g id="Layer 2 - Accessories">
		<path id="&lt;Path&gt;" class="s1" d="m353.41 418.23c0.06-2.14 7.08-3.66 11.82-3.72 1.14-0.01 8.3-0.09 9.13 2.71 0.45 1.54-1.16 3.44-2.37 4.39-5.9 4.64-18.66-0.47-18.58-3.38z"/>
		<path id="&lt;Path&gt;" class="s4" d="m355.28 282.09c1.1-1.29-0.9-4.67-1.67-5.98-3.91-6.61-8.65-11.85-9.41-12.51-12.03-10.47-5.24-5.61-30.31-20.93-15.05-9.19-22.49-10.41-25.11-10.96-6.6-1.37-12.49-2.31-20.71-0.7-8.38 1.63-14.55 4.08-24.9 13.12 0 0-5.95 4.31-11.22 12.83-3.27 5.29-2.35 8.49-1.69 9.32 1.04 1.32 4.03 1.04 6.11 0.04 3.24-1.53 6.27-5.4 7.36-6.44 8.2-7.83 18.98-9.49 26.23-9.99 14.29-0.98 25.25 2.85 31.38 5.07 7.12 2.58 19.67 7.3 31.66 17.01 5.37 4.34 8.1 5.88 13.97 8.45 6.8 2.99 8.01 2.02 8.31 1.67z"/>
		<path id="&lt;Path&gt;" class="s1" d="m427.82 418.23c-0.06-2.14-7.09-3.66-11.83-3.72-1.14-0.01-8.29-0.09-9.12 2.71-0.45 1.54 1.16 3.44 2.37 4.39 5.9 4.64 18.66-0.47 18.58-3.38z"/>
		<g id="&lt;Group&gt;">
			<path id="&lt;Path&gt;" class="s4" d="m351.91 482.84c7.48-0.56 12.89-0.74 17.7-0.41 6.13 0.41 6.37 1.24 13.59 1.61 4.45 0.23 5.04 0.17 7.41 0.05 2.38 0.12 2.97 0.18 7.42-0.05 7.22-0.37 7.46-1.2 13.58-1.61 4.82-0.33 10.35-0.77 17.86-0.69 8.96 0.1 11.95-0.09 18.28-1.99 3.8-1.14 6.53-3.06 8.36-3.45-2.64-1.64-7.99-1.74-13.43-2.62-5.05-0.82-4.56-1.14-13.21-2.75-8-1.48-12.31-1.67-19.15-2.4-2.77-0.3-4.2-0.05-6.34 0.25-3.49 0.5-3.86 1.38-6.9 1.97-2.01 0.38-2.6 1.08-6.47 0.88-3.87 0.2-4.45-0.5-6.46-0.88-3.05-0.59-3.41-1.47-6.9-1.97-2.14-0.3-3.57-0.55-6.34-0.25-6.85 0.73-11.21 2.45-19.06 4.56-9.06 2.43-8.29 1.75-13.85 3.77-5.17 1.87-10.24 4.02-12.89 5.66 1.84 0.39 4.8 0.97 8.37 1.24 6.59 0.49 9.45-0.25 18.43-0.92z"/>
			<path id="&lt;Path&gt;" class="s4" d="m438.57 485.14c-4.05 0.27-7.83 0.18-10.96-0.3-5.27-0.79-10.04-0.31-16.85 0.64-7.55 1.05-5.08 1.18-11.28 1.64-3.79 0.29-6.82 0.27-8.87 0.19-2.04 0.08-5.08 0.1-8.86-0.19-6.2-0.46-3.73-0.59-11.28-1.64-6.81-0.95-11.58-1.43-16.85-0.64-3.13 0.48-6.78 1.39-10.81 1.82-4.2 0.44-9.47 0.17-16.39 0.21 3.89 1.09 9.26 4.11 15.71 5.36 8.87 1.72 15.65 2.95 22.51 3.61 6.8 0.65 15.57 1.68 25.97 1.9 10.4-0.22 19.18-0.99 25.98-1.64 6.86-0.66 13.84-2.43 22.5-5.01 6.38-1.9 11.82-6.74 15.71-7.83-6.91-0.04-12.36 1.62-16.23 1.88z"/>
		</g>
		<path id="&lt;Path&gt;" class="s4" d="m425.95 282.09c-1.1-1.29 0.9-4.67 1.67-5.98 3.91-6.61 8.65-11.85 9.41-12.51 12.03-10.47 5.24-5.61 30.31-20.93 15.05-9.19 22.49-10.41 25.11-10.96 6.6-1.37 12.49-2.31 20.71-0.7 8.38 1.63 14.55 4.08 24.9 13.12 0 0 5.95 4.31 11.21 12.83 3.28 5.29 2.36 8.49 1.7 9.32-1.04 1.32-4.03 1.04-6.12 0.04-3.23-1.53-6.26-5.4-7.35-6.44-8.2-7.83-18.98-9.49-26.23-9.99-14.29-0.98-25.25 2.85-31.38 5.07-7.12 2.58-19.67 7.3-31.67 17.01-5.36 4.34-8.09 5.88-13.96 8.45-6.8 2.99-8.01 2.02-8.31 1.67z"/>
		<path id="&lt;Path&gt;" class="s3" d="m612.07 450c-25.78 57.99-66.33 74.92-86.65 89.66 9.26-29.78 31.6-101.9 12.7-194.88 1.21-1.21 2.95-3.3 5.25-7.13 2.41-4.01 5.55-10.09 8.3-19.55 1.64-5.64 3.43-13.49 4.15-23.11-9.14-5.41-21.25-9.56-35.76-11.86q-3.81-9.93-8.33-20.06c-26.99-60.46-145.91-128.81-173.74-154.71 118.13 14.88 281.85 126.89 295.37 213.97 9.18 59.14-16.23 116.28-21.29 127.67z"/>
		<g id="&lt;Group&gt;">
			<path id="&lt;Path&gt;" class="s5" d="m370.34 299.29c-4.18-4.35-13.43-14.19-78.04-23.22-4.36-0.61-5.96-0.34-6.84-0.34-30.18 0.14-54.64 6.28-70.86 15.87 0.82 10.97 2.86 19.92 4.73 26.35 3.13 10.78 6.71 17.72 9.46 22.29 3.76 6.26 6.21 8.45 7.43 9.45 5.84 4.8 12.34 5.81 16.55 6.42 39.31 5.63 40.37 5.76 45.27 6.08 4.98 0.32 16.82 1.02 31.76-0.34 8.08-0.73 12.32-1.64 16.56-4.39 1.39-0.91 5.32-3.66 12.16-15.87 7.14-12.74 6.12-15.56 10.47-20.94 3.35-4.14 9.48-9.31 21.62-11.99-2.66-0.1-6.39-0.56-10.38-2.28-5.59-2.41-8.89-6.06-9.89-7.09z"/>
			<path id="&lt;Path&gt;" class="s5" d="m495.77 275.73c-0.88 0-2.48-0.27-6.84 0.34-64.62 9.03-73.86 18.87-78.05 23.22-0.99 1.03-4.29 4.68-9.88 7.09-4 1.72-7.72 2.18-10.39 2.28 12.15 2.68 18.28 7.85 21.63 11.99 4.35 5.38 3.33 8.2 10.47 20.94 6.84 12.21 10.77 14.96 12.16 15.87 4.23 2.75 8.48 3.66 16.56 4.39 14.93 1.36 26.78 0.66 31.75 0.34 4.91-0.32 5.96-0.45 45.28-6.08 4.21-0.61 10.7-1.62 16.55-6.42 1.21-1 3.66-3.19 7.43-9.45 2.75-4.57 6.33-11.51 9.46-22.29 1.87-6.43 3.91-15.38 4.73-26.35-16.22-9.59-40.68-15.73-70.86-15.87z"/>
		</g>
		<g id="&lt;Group&gt;" style="mix-blend-mode: soft-light">
			<path id="&lt;Path&gt;" class="s0" d="m520.06 283.13c-8.09-1.3-16.92-2.02-26.4-2.07-0.77 0-2.17-0.24-6 0.3-56.67 7.93-64.78 16.56-68.45 20.37-0.87 0.91-3.77 4.11-8.67 6.22-3.51 1.5-6.78 1.91-9.11 2 10.64 2.35 16.03 6.89 18.96 10.52 3.82 4.72 2.93 7.19 9.19 18.36 6 10.71 9.45 13.13 10.67 13.93 3.71 2.41 7.43 3.2 14.52 3.85 13.1 1.19 23.49 0.57 27.86 0.29 4.3-0.27 5.22-0.39 39.7-5.33 3.7-0.53 9.4-1.42 14.52-5.63 0.33-0.27 0.75-0.62 1.27-1.16-4-19.68-9.84-40.31-18.06-61.65z"/>
			<path id="&lt;Path&gt;" class="s0" d="m314.34 286.11c-5.95-1.08-12.71-2.17-20.41-3.25-3.69-0.52-5.03-0.29-5.77-0.28-25.42 0.11-46.03 5.28-59.69 13.36q0.25 3.3 0.65 6.29c0.84 6.42 2.13 11.78 3.34 15.9 2.64 9.09 5.64 14.94 7.96 18.78 3.17 5.27 5.23 7.13 6.26 7.97 4.93 4.05 10.4 4.89 13.95 5.41 33.12 4.74 34 4.85 38.13 5.12 4.19 0.26 14.17 0.85 26.76-0.29 6.79-0.62 10.38-1.38 13.94-3.7 0.62-0.41 1.87-1.26 3.79-3.56-3.92-19.01-9.58-38.88-17.44-59.44q-5.15-1.15-11.47-2.31z"/>
		</g>
	</g>
	<g id="Layer 3 - Hair">
		<path id="&lt;Path&gt;" class="s4" d="m314.65 103.5c-16.49 4.83-48.04 16.82-70.32 46.94-6.29 8.5-13.25 20.34-21.11 46.61-7.69 25.68-16.53 66.09-15.04 119.21-2.57-2.39-10.27-8.23-21.21-9.62-3.54-0.45-11.17-0.96-17.84 3.57-10.05 6.82-10.75 20.53-11.02 25.89-0.53 10.46 2.57 12.8 6.92 30.08 2.65 10.49 4.39 8.96 7.9 46.58 1.67 17.99 3.5 19.14 5.93 23.83 2.32 4.49 11.07 18.85 25.08 21.34 7.4 1.32 13.54-2.93 16.4-4.89 5.82 27.02 14.84 40.53 16.85 53.67 0.41 2.7 4.41 6.86 6.54 13.78 4.74 9.04 4.74 17.28 4.99 28.8 0.25 11.72 0 12.41 0.76 27.61 1.42 28.36 1.66 54.27-2.03 78.01-1.61 10.36-4.36 18.29-5.57 23.81-6.59-12.67-7.75-25.75-9.12-33.44-1.59-8.86-0.55-14.82-3.6-15.38-2.33-0.43-6.78 1.73-10.85 8.55-9.37 15.7-5.73 11.92-11.65 21.23-16.79 26.38-17.15 38.06-32.44 50.95-2.71 2.29-5.26 3.97-13.68 8.36-13.18 9.12-35.07 17.32-63.09 27.36 16.2-81.69 26.65-149.73 33.44-199.85 7.29-53.67 14.47-116.88 16.73-136.78 5.7-50.15 7.99-74.53 14.44-120.82 3.97-28.47 9.36-64.1 19-107.9 7.97-36.16 11.95-54.23 18.25-66.87 25.85-51.85 76.89-74.79 89.7-80.55 78.77-35.4 156.5-7.81 184.71 4.56 68.21 29.92 102.54 82.95 116.31 104.86 12.25 19.51 19.46 36.29 38.01 93.47 37.64 116.04 56.46 174.06 66.89 229.48 12.69 67.44 14.26 110.16 50.93 155.02 14.4 17.61 29.37 29.64 40.14 37.23q0 32.3 0 64.59c-7.14-3.61-18.31-4.82-32.54-7.09-22.41-3.58-31.71-1.23-56.25 0.25-12.07 0.73-42.8 4.06-72.21-9.12-24.36-10.9-24.79-23.4-45.61-29.63-21.35-6.39-26.82-8.18-40.55-3.04-13.17-36.98-16.25-63.76-21.03-82.07-1.85-7.1-6.56-23.27 0-40.27 4.25-10.98 11.01-17.52 13.25-21.37 8.54-14.68 16.63-35.12 28.56-78.17 2.17 2.18 6.17 5.04 11.51 5.73 11.57 1.5 20.78-9.67 24.98-14.85 6.48-8.01 8.83-16.04 9.88-19.76 2.14-7.57 1.46-13.35 1.47-17.62 0.05-18.35 4.49-26.33 14.49-65.97 0.92-3.62-0.14-8.25-1.73-14.12-0.3-1.13-3.08-11.84-13.67-17.98-10.57-3.61-22.99-0.07-34.51 8.55-0.12-19.73-3.25-56.3-26.1-91.95-7.22-11.26-23.66-33.75-73.74-63.07-32.19-18.85-84.72-44.29-157.55-57.74z"/>
		<path id="&lt;Path&gt;" class="s6" d="m314.65 103.5c-16.7 9.55-82.53 41.02-97.03 114.63-8.56 43.48-10.71 77.99-9.44 98.13-2.11-1.84-5.18-4.15-9.28-6.09-3.87-1.84-7.4-2.76-10.06-3.24-1.4-8.77-2.83-20.44-3.3-34.24-0.4-11.62-0.93-30.16 3.38-53.36 2.21-11.89 6.02-31.56 17.91-54.37 5.92-11.37 15.03-28.44 33.44-43.91 7.35-6.16 15.6-12.96 28.38-17.22 19.96-6.65 37.77-2.74 46-0.33z"/>
		<g id="&lt;Clip Group&gt;" clip-path="url(#cp1)" style="opacity: .36">
			<path id="&lt;Path&gt;" class="s1" d="m572.04 303.09c17.36 20.63 37.52 51.89 40.03 91.69 0.92 14.54-1.99 25.39-1.52 29.89 5.41 51.24-9.01 128.62-30.91 251.26-6.59 3.4-18.7 8.27-30.41 4.06-11.89-4.29-19.46-16.55-26.86-43.57-14.15-51.73-10.64-90.17-10.64-90.17 8.64-94.69 54.38-226.3 60.31-243.16z"/>
		</g>
	</g>
	<g id="Layer 4 - Shirt">
		<path id="&lt;Path&gt;" class="s7" d=""/>
		<g id="&lt;Group&gt;">
			<path id="&lt;Path&gt;" class="s7" d="m302.94 824.87c-8.05-10.95-11.79-20.47-19.25-39.51-7.32-18.65-5.2-18.8-12.17-38-8.14-22.45-10.59-21.01-22.29-50.15-9.56-23.79-14.34-35.68-14.92-44.14-0.61-8.78-0.09-21.51-5.15-23.17-2.11-0.69-4.49 0.77-6.07 1.74-6.08 3.73-8.24 10.53-9 12.76-5.17 15.19-11.42 12.73-21.51 34.4-5.92 12.72-4.76 15.87-10.72 23.5-5.66 7.25-11.82 11.27-15.94 13.81-22.44 13.86-44.38 20.85-68.47 30.24-18.21 7.09-14.37 6.48-32.69 13.68-26.86 10.55-49.4 17.47-64.76 21.78q0 109.09 0 218.19 146.15 0 292.3 0c2.19-4.41 4.5-10.93 3.04-18.09-1.04-5.11-3.1-6.15-4.05-11.14-1.11-5.83 0.95-8.3 4.56-20.77 3.75-12.96 5.63-19.44 4.05-24.83-1.68-5.75-4.91-7.66-4.56-13.17 0.29-4.46 2.69-7.61 5.07-10.64 15.96-20.34 17.3-20.59 19.26-24.82 5.26-11.38 1.89-23.24 1.01-26.34-3.05-10.75-8.62-12.94-17.74-25.33z"/>
			<path id="&lt;Path&gt;" class="s7" d="m786.99 1000q-0.49-138.6-0.99-277.21c-26.39-8.7-47.82-10.33-62.42-10.24-27.05 0.17-35.03 6.29-60.75 2.76-12.79-1.76-30.73-4.22-48.68-16.15-17.75-11.8-16.8-20.42-34-27.79-14.76-6.32-35.94-8.75-42.21 0.23-1.31 1.89-1.57 3.71-1.88 6.36-2.39 20.22-2.05 37.73-2.03 39.01 0.31 16.92-1.68 13.48-1.52 32.42 0.09 10.56 0.17 20.1 1.52 32.93 1.39 13.2 3.07 19.81-0.51 28.36-0.24 0.59-0.23 0.51-7.09 11.66-8.64 14.02-10.23 16.7-10.14 20.77 0.1 4.16 2.09 7.17 6.08 13.17 2.12 3.18 7.79 11.71 18.25 18.23 4.62 2.89 6.9 3.34 9.12 6.59 3.8 5.57 2.67 12.41 2.53 13.17-2.11 11.79-14.8 11.67-25.84 27.36-2.46 3.48-7.36 10.45-8.62 20.26-1.55 12.12 3.92 17.17 5.07 30.9 0.53 6.39 0.21 15.63-4.05 27.21q134.08 0 268.16 0z"/>
		</g>
		<g id="&lt;Group&gt;" style="opacity: .36;mix-blend-mode: luminosity">
			<path id="&lt;Path&gt;" class="s8" d="m639.94 871.48c-17.98-3.22-32.59-5.84-49.15-14.7-13.31-7.11-18.26-13.11-34.46-18.23-7.82-2.48-19.3-5.96-24.33-0.51-2.85 3.09-2.99 8.35-1.52 12.16 3.12 8.05 13.94 10.69 20.27 12.16 39.97 9.23 59.95 13.84 85.14 14.18 10.32 0.14 24.94-0.03 42.57-1.52-10.95-0.07-24-0.95-38.52-3.54z"/>
			<path id="&lt;Path&gt;" class="s8" d="m574.57 870.97c1.13 6.93 2.24 20.33-5.07 29.38-2.09 2.59-5.53 5.65-6.58 6.59-6.21 5.51-11.27 8.27-14.19 10.13-5.95 3.78-13.91 11.86-18.75 20.26-7.19 12.46-7.79 24.92-7.54 31.72 36.56-23.69 47.4-37.77 50.1-46.41 0.83-2.64 2.02-8.35 5.58-16.72 4.26-10.02 7.11-12.56 7.09-17.73-0.01-4.17-1.9-10.08-10.64-17.22z"/>
			<path id="&lt;Path&gt;" class="s8" d="m262.91 881.61c13.68-8.13 22.3-19.25 22.3-19.25 8-10.34 11.53-20.58 13.17-26.85q-57.26 27.1-114.53 54.2c6.51 1.47 48.08 10.29 79.06-8.1z"/>
		</g>
	</g>
</svg>